<svg xmlns="http://www.w3.org/2000/svg" width="154" height="52" fill="none"><path fill="#404040" d="M153.762 37.887c0 7.458-6.11 13.568-13.568 13.568H13.568C6.11 51.455 0 45.345 0 37.887V13.762C0 6.304 6.11.194 13.568.194h126.626c7.458 0 13.568 6.11 13.568 13.568v24.125Z"/><path fill="#fff" d="m58.525 19.044-.65-1.6h-3.02l-.65 1.6h-.8l2.67-6.5h.58l2.67 6.5h-.8Zm-3.39-2.3h2.45l-1.23-3.03-1.22 3.03Zm5.838 2.3-1.81-4.6h.75l1.42 3.61 1.43-3.61h.75l-1.83 4.6h-.71Zm7.01-4.6h.73v4.6h-.73v-.83c-.35.55-.93.91-1.71.91-1.31 0-2.24-1.01-2.24-2.38 0-1.38.93-2.37 2.24-2.37.78 0 1.36.35 1.71.9v-.83Zm-1.62 3.99c.99 0 1.62-.71 1.62-1.69s-.63-1.68-1.62-1.68c-.98 0-1.63.7-1.63 1.68s.65 1.69 1.63 1.69Zm4.041-4.97c-.22 0-.44-.18-.44-.45s.22-.43.44-.43.44.16.44.43-.22.45-.44.45Zm.36 5.58h-.72v-4.6h.73l-.01 4.6Zm2.059 0h-.72v-6.5h.72v6.5Zm5.072-4.6h.73v4.6h-.73v-.83c-.35.55-.93.91-1.71.91-1.31 0-2.24-1.01-2.24-2.38 0-1.38.93-2.37 2.24-2.37.78 0 1.36.35 1.71.9v-.83Zm-1.62 3.99c.99 0 1.62-.71 1.62-1.69s-.63-1.68-1.62-1.68c-.98 0-1.63.7-1.63 1.68s.65 1.69 1.63 1.69Zm6.031-4.06c1.31 0 2.25.99 2.25 2.37 0 1.37-.94 2.38-2.25 2.38-.78 0-1.36-.36-1.71-.91v.83h-.72v-6.5h.72v2.73c.35-.55.93-.9 1.71-.9Zm-.09 4.06c.98 0 1.63-.71 1.63-1.69s-.65-1.68-1.63-1.68c-.98 0-1.62.7-1.62 1.68s.64 1.69 1.62 1.69Zm4.172.61h-.72v-6.5h.72v6.5Zm3.392-4.68c1.32 0 2.2 1.01 2.2 2.38v.23h-3.77c.09.92.72 1.53 1.63 1.53.68 0 1.15-.31 1.41-.7l.51.37c-.4.59-1.08.96-1.92.96-1.4 0-2.33-1.02-2.33-2.39s.89-2.38 2.27-2.38Zm0 .6c-.9 0-1.47.61-1.57 1.51h3.1c-.1-.87-.67-1.51-1.53-1.51Zm7.521 4.17c-1.38 0-2.34-1.02-2.34-2.39 0-1.38.96-2.38 2.34-2.38s2.34 1 2.34 2.38c0 1.37-.96 2.39-2.34 2.39Zm0-.7c.97 0 1.61-.72 1.61-1.69s-.64-1.68-1.61-1.68c-.97 0-1.62.71-1.62 1.68s.65 1.69 1.62 1.69Zm5.654-4.06c.92 0 1.83.54 1.83 1.84v2.83h-.72v-2.73c0-.88-.62-1.31-1.3-1.31-.69 0-1.29.43-1.29 1.31v2.73h-.72v-4.6h.72v.62c.35-.48.91-.69 1.48-.69Zm7.265.64h-1.1v2.83c0 .49.3.61.64.61h.41v.59h-.67c-.7 0-1.11-.4-1.11-1.1v-2.93h-.64v-.57h.64v-1.4h.73v1.4h1.1v.57Zm3.194-.64c.92 0 1.83.54 1.83 1.84v2.83h-.72v-2.73c0-.88-.62-1.31-1.3-1.31-.69 0-1.29.43-1.29 1.31v2.73h-.72v-6.5h.72v2.52c.35-.48.91-.69 1.48-.69Zm5.223-.01c1.32 0 2.2 1.01 2.2 2.38v.23h-3.77c.09.92.72 1.53 1.63 1.53.68 0 1.15-.31 1.41-.7l.51.37c-.4.59-1.08.96-1.92.96-1.4 0-2.33-1.02-2.33-2.39s.89-2.38 2.27-2.38Zm0 .6c-.9 0-1.47.61-1.57 1.51h3.1c-.1-.87-.67-1.51-1.53-1.51ZM60.472 40.194l-1.17-2.88h-5.436l-1.17 2.88h-1.44l4.806-11.7h1.044l4.806 11.7h-1.44Zm-6.102-4.14h4.41L56.566 30.6l-2.196 5.454Zm13.472-4.266c2.358 0 4.05 1.818 4.05 4.284 0 2.484-1.692 4.266-4.05 4.266-1.404 0-2.448-.63-3.078-1.638v4.806h-1.296V31.914h1.296v1.512c.63-1.008 1.674-1.638 3.078-1.638Zm-.162 7.308c1.764 0 2.934-1.26 2.934-3.024s-1.17-3.042-2.934-3.042c-1.764 0-2.916 1.278-2.916 3.042 0 1.764 1.152 3.024 2.916 3.024Zm10.585-7.308c2.359 0 4.05 1.818 4.05 4.284 0 2.484-1.691 4.266-4.05 4.266-1.403 0-2.448-.63-3.078-1.638v4.806h-1.296V31.914h1.296v1.512c.63-1.008 1.675-1.638 3.079-1.638Zm-.162 7.308c1.765 0 2.934-1.26 2.934-3.024s-1.17-3.042-2.934-3.042c-1.763 0-2.915 1.278-2.915 3.042 0 1.764 1.151 3.024 2.915 3.024Zm9.456-1.404 1.116-.738c.414 1.098 1.854 2.088 3.798 2.088 2.016 0 2.862-.756 2.862-2.106 0-1.53-2.286-1.89-3.348-2.196-1.134-.306-4.014-.792-4.014-3.204 0-2.196 1.872-3.24 4.374-3.24 2.16 0 3.888 1.044 4.32 2.322l-1.116.666c-.324-.864-1.656-1.638-3.348-1.638-1.746 0-2.7.684-2.7 1.836 0 1.44 2.088 1.746 3.24 2.052 1.044.306 4.086.918 4.086 3.348 0 2.304-1.674 3.51-4.482 3.51-2.52 0-4.23-1.17-4.788-2.7Zm15.076-4.752h-1.98v5.094c0 .882.54 1.098 1.152 1.098h.738v1.062h-1.206c-1.26 0-1.998-.72-1.998-1.98V32.94H98.19v-1.026h1.152v-2.52h1.314v2.52h1.98v1.026Zm5.328 7.416c-2.484 0-4.212-1.836-4.212-4.302 0-2.484 1.728-4.284 4.212-4.284s4.212 1.8 4.212 4.284c0 2.466-1.728 4.302-4.212 4.302Zm0-1.26c1.746 0 2.898-1.296 2.898-3.042 0-1.746-1.152-3.024-2.898-3.024-1.746 0-2.916 1.278-2.916 3.024s1.17 3.042 2.916 3.042Zm7.514-5.652c.63-1.134 1.746-1.638 2.916-1.656v1.242c-1.278.018-2.916.684-2.916 2.7v4.464h-1.296v-8.28h1.296v1.53Zm7.846-1.674c2.376 0 3.96 1.818 3.96 4.284v.414h-6.786c.162 1.656 1.296 2.754 2.934 2.754 1.224 0 2.07-.558 2.538-1.26l.918.666c-.72 1.062-1.944 1.728-3.456 1.728-2.52 0-4.194-1.836-4.194-4.302 0-2.466 1.602-4.284 4.086-4.284Zm0 1.08c-1.62 0-2.646 1.098-2.826 2.718h5.58c-.18-1.566-1.206-2.718-2.754-2.718ZM26.933 10.931H11.03a2.358 2.358 0 0 0-2.358 2.359V40.2a2.358 2.358 0 0 0 2.358 2.36h15.904a2.358 2.358 0 0 0 2.36-2.36V13.29c0-1.28-1.08-2.359-2.36-2.359Z"/><path fill="#404040" d="M28.147 14.727H9.794v22.194h18.353V14.727Z"/><path fill="#6639A6" d="M22.733 12.346h-7.525a.57.57 0 0 0-.562.562c0 .314.247.561.562.561h7.525a.57.57 0 0 0 .561-.561.57.57 0 0 0-.561-.562ZM17.185 39.594c0-.988.808-1.82 1.797-1.82.988 0 1.82.81 1.82 1.82 0 .989-.81 1.797-1.82 1.797-.989.023-1.797-.786-1.797-1.797Z"/></svg>