<svg xmlns="http://www.w3.org/2000/svg" width="154" height="52" fill="none"><path fill="#404040" d="M153.762 37.865c0 7.458-6.11 13.568-13.568 13.568H13.568C6.11 51.433 0 45.323 0 37.865V13.762C0 6.304 6.11.194 13.568.194h126.626c7.458 0 13.568 6.11 13.568 13.568v24.103Z"/><path fill="#fff" d="M54.927 14.594h.73v4.6h-.73v-.83c-.35.55-.93.91-1.71.91-1.31 0-2.24-1.01-2.24-2.38 0-1.38.93-2.37 2.24-2.37.78 0 1.36.35 1.71.9v-.83Zm-1.62 3.99c.99 0 1.62-.71 1.62-1.69s-.63-1.68-1.62-1.68c-.98 0-1.63.7-1.63 1.68s.65 1.69 1.63 1.69Zm5.8-4.06c.92 0 1.83.54 1.83 1.84v2.83h-.72v-2.73c0-.88-.62-1.31-1.3-1.31-.69 0-1.29.43-1.29 1.31v2.73h-.72v-4.6h.72v.62c.35-.48.91-.69 1.48-.69Zm6.904-1.83h.73v6.5h-.73v-.83c-.35.55-.93.91-1.71.91-1.31 0-2.24-1.01-2.24-2.38 0-1.38.93-2.37 2.24-2.37.78 0 1.36.35 1.71.9v-2.73Zm-1.62 5.89c.99 0 1.62-.71 1.62-1.69s-.63-1.68-1.62-1.68c-.98 0-1.63.7-1.63 1.68s.65 1.69 1.63 1.69Zm4.32-3.14c.35-.63.97-.91 1.62-.92v.69c-.71.01-1.62.38-1.62 1.5v2.48h-.72v-4.6h.72v.85Zm4.43 3.84c-1.38 0-2.34-1.02-2.34-2.39 0-1.38.96-2.38 2.34-2.38s2.34 1 2.34 2.38c0 1.37-.96 2.39-2.34 2.39Zm0-.7c.97 0 1.61-.72 1.61-1.69s-.64-1.68-1.61-1.68c-.97 0-1.62.71-1.62 1.68s.65 1.69 1.62 1.69Zm3.894-4.97c-.22 0-.44-.18-.44-.45s.22-.43.44-.43.44.16.44.43-.22.45-.44.45Zm.36 5.58h-.72v-4.6h.73l-.01 4.6Zm5.15-6.5h.73v6.5h-.73v-.83c-.35.55-.93.91-1.71.91-1.31 0-2.24-1.01-2.24-2.38 0-1.38.93-2.37 2.24-2.37.78 0 1.36.35 1.71.9v-2.73Zm-1.62 5.89c.99 0 1.62-.71 1.62-1.69s-.63-1.68-1.62-1.68c-.98 0-1.63.7-1.63 1.68s.65 1.69 1.63 1.69Zm9.412-3.99h.73v4.6h-.73v-.83c-.35.55-.93.91-1.71.91-1.31 0-2.24-1.01-2.24-2.38 0-1.38.93-2.37 2.24-2.37.78 0 1.36.35 1.71.9v-.83Zm-1.62 3.99c.99 0 1.62-.71 1.62-1.69s-.63-1.68-1.62-1.68c-.98 0-1.63.7-1.63 1.68s.65 1.69 1.63 1.69Zm6.031-4.06c1.31 0 2.25 1.01 2.25 2.38 0 1.38-.94 2.37-2.25 2.37-.78 0-1.36-.35-1.71-.91v2.67h-.72v-6.44h.72v.84c.35-.56.93-.91 1.71-.91Zm-.09 4.06c.98 0 1.63-.7 1.63-1.68s-.65-1.69-1.63-1.69c-.98 0-1.62.71-1.62 1.69s.64 1.68 1.62 1.68Zm5.881-4.06c1.31 0 2.25 1.01 2.25 2.38 0 1.38-.94 2.37-2.25 2.37-.78 0-1.36-.35-1.71-.91v2.67h-.72v-6.44h.72v.84c.35-.56.93-.91 1.71-.91Zm-.09 4.06c.98 0 1.63-.7 1.63-1.68s-.65-1.69-1.63-1.69c-.98 0-1.62.71-1.62 1.69s.64 1.68 1.62 1.68Zm7.653.7c-1.38 0-2.34-1.02-2.34-2.39 0-1.38.96-2.38 2.34-2.38s2.34 1 2.34 2.38c0 1.37-.96 2.39-2.34 2.39Zm0-.7c.97 0 1.61-.72 1.61-1.69s-.64-1.68-1.61-1.68c-.97 0-1.62.71-1.62 1.68s.65 1.69 1.62 1.69Zm5.654-4.06c.92 0 1.83.54 1.83 1.84v2.83h-.72v-2.73c0-.88-.62-1.31-1.3-1.31-.69 0-1.29.43-1.29 1.31v2.73h-.72v-4.6h.72v.62c.35-.48.91-.69 1.48-.69ZM60.125 34.375c-.108 3.33-2.232 5.724-5.616 5.724-3.474 0-5.85-2.52-5.85-5.994 0-3.474 2.376-5.994 5.85-5.994 2.07 0 3.726.9 4.734 2.34l-1.116.792c-.828-1.152-2.124-1.764-3.618-1.764-2.682 0-4.5 1.944-4.5 4.626 0 2.682 1.818 4.626 4.5 4.626 2.214 0 3.852-1.422 4.086-3.672h-4.14v-1.26h5.67v.576Zm6.05 5.742c-2.483 0-4.211-1.836-4.211-4.302 0-2.484 1.728-4.284 4.212-4.284s4.212 1.8 4.212 4.284c0 2.466-1.728 4.302-4.212 4.302Zm0-1.26c1.747 0 2.899-1.296 2.899-3.042 0-1.746-1.152-3.024-2.898-3.024-1.746 0-2.916 1.278-2.916 3.024s1.17 3.042 2.916 3.042Zm10.178 1.26c-2.483 0-4.212-1.836-4.212-4.302 0-2.484 1.728-4.284 4.212-4.284 2.485 0 4.213 1.8 4.213 4.284 0 2.466-1.728 4.302-4.213 4.302Zm0-1.26c1.747 0 2.898-1.296 2.898-3.042 0-1.746-1.151-3.024-2.898-3.024-1.745 0-2.915 1.278-2.915 3.024s1.17 3.042 2.915 3.042Zm13.076-7.182h1.314v7.668c0 2.376-1.692 4.032-4.356 4.032-1.44 0-2.664-.558-3.42-1.458l.882-.738c.666.738 1.584 1.062 2.538 1.062 1.53 0 3.042-.918 3.042-2.898v-.882c-.63.99-1.674 1.638-3.078 1.638-2.358 0-4.032-1.818-4.032-4.284 0-2.466 1.674-4.266 4.032-4.266 1.404 0 2.448.63 3.078 1.62v-1.494Zm-2.916 7.182c1.764 0 2.916-1.278 2.916-3.042 0-1.764-1.152-3.024-2.916-3.024s-2.934 1.26-2.934 3.024 1.17 3.042 2.934 3.042Zm7.778 1.098h-1.296v-11.7h1.296v11.7Zm6.106-8.424c2.376 0 3.96 1.818 3.96 4.284v.414h-6.786c.162 1.656 1.296 2.754 2.934 2.754 1.224 0 2.07-.558 2.538-1.26l.918.666c-.72 1.062-1.944 1.728-3.456 1.728-2.52 0-4.194-1.836-4.194-4.302 0-2.466 1.602-4.284 4.086-4.284Zm0 1.08c-1.62 0-2.646 1.098-2.826 2.718h5.58c-.18-1.566-1.206-2.718-2.754-2.718Zm14.852-4.356c1.764 0 3.348 1.404 3.348 3.564s-1.584 3.564-3.348 3.564h-3.924v4.572h-1.35v-11.7h5.274Zm-.198 5.814c1.26 0 2.178-.99 2.178-2.25 0-1.242-.9-2.232-2.178-2.232h-3.726v4.482h3.726Zm6.732 5.886h-1.296v-11.7h1.296v11.7Zm9.131-8.28h1.314v8.28h-1.314V38.46c-.63.99-1.674 1.638-3.078 1.638-2.358 0-4.032-1.818-4.032-4.284 0-2.484 1.674-4.266 4.032-4.266 1.404 0 2.448.63 3.078 1.62v-1.494Zm-2.916 7.182c1.782 0 2.916-1.278 2.916-3.042 0-1.764-1.134-3.024-2.916-3.024-1.764 0-2.934 1.26-2.934 3.024s1.17 3.042 2.934 3.042Zm12.187-7.182h1.35l-4.608 11.592h-1.278l1.296-3.33-3.24-8.262h1.35l2.556 6.48 2.574-6.48Z"/><path fill="#5CA9B3" d="M8.67 42.313V9.336l29.652 16.017-29.651 16.96Z"/><path fill="#C8DB9B" d="m8.67 9.336 20.981 20.981 8.671-4.964L8.671 9.336Z"/><path fill="#AC5067" d="M29.472 20.568 8.67 42.312l29.651-16.96-8.85-4.784Z"/><path fill="#F4A676" d="m29.652 30.317 8.67-4.964-8.85-4.785-4.672 4.897 4.852 4.852Z"/></svg>